<svg xmlns="http://www.w3.org/2000/svg" version="1.1" xmlns:xlink="http://www.w3.org/1999/xlink" xmlns:svgjs="http://svgjs.dev/svgjs" width="1500" height="1500" viewBox="0 0 1500 1500"><rect width="1500" height="1500" fill="#000000"></rect><g transform="matrix(0.6666666666666666,0,0,0.6666666666666666,249.39393939393932,567.4278707349717)"><svg viewBox="0 0 396 144" data-background-color="#ebeddf" preserveAspectRatio="xMidYMid meet" height="545" width="1500" xmlns="http://www.w3.org/2000/svg" xmlns:xlink="http://www.w3.org/1999/xlink"><g id="tight-bounds" transform="matrix(1,0,0,1,0.24000000000003752,0.3588622408185529)"><svg viewBox="0 0 395.5199999999999 143.2822755183629" height="143.2822755183629" width="395.5199999999999"><g><svg viewBox="0 0 682.3935325090908 247.20595200474438" height="143.2822755183629" width="395.5199999999999"><g transform="matrix(1,0,0,1,286.8735325090909,0)"><svg viewBox="0 0 395.52 247.20595200474438" height="247.20595200474438" width="395.52"><g id="textblocktransform"><svg viewBox="0 0 395.52 247.20595200474438" height="247.20595200474438" width="395.52" id="textblock"><g><svg viewBox="0 0 395.52 179.78181818181818" height="179.78181818181818" width="395.52"><g transform="matrix(1,0,0,1,0,0)"><svg width="395.52" viewBox="1.8 -35.5 81.34 36.25" height="179.78181818181818" data-palette-color="#97b002"><g class="wordmark-text-0" data-fill-palette-color="primary" id="text-0"><path d="M4.45-6.35Q4.75-4.1 6.7-2.98 8.65-1.85 11.05-1.85L11.05-1.85Q13.3-1.85 15.15-2.88 17-3.9 17-6.2L17-6.2Q17-7.7 16.13-8.68 15.25-9.65 13.95-10.25 12.65-10.85 10.45-11.55L10.45-11.55Q8-12.35 6.45-13.05 4.9-13.75 3.75-15.03 2.6-16.3 2.4-18.25L2.4-18.25 2.35-18.85Q2.35-20.5 3.28-22.08 4.2-23.65 6.13-24.65 8.05-25.65 10.95-25.65L10.95-25.65Q12.55-25.65 13.78-25.33 15-25 15.7-24.65 16.4-24.3 16.55-24.2L16.55-24.2 15.6-21.9Q15.45-22 14.88-22.3 14.3-22.6 13.25-22.9 12.2-23.2 10.95-23.2L10.95-23.2Q8.55-23.2 6.85-22.08 5.15-20.95 5.15-18.95L5.15-18.95Q5.15-17.05 6.7-16.05 8.25-15.05 11.45-14.05L11.45-14.05Q14.15-13.15 15.8-12.35 17.45-11.55 18.63-10.08 19.8-8.6 19.8-6.25L19.8-6.25Q19.8-3.25 17.57-1.25 15.35 0.75 11.05 0.75L11.05 0.75Q8.2 0.75 6.13-0.23 4.05-1.2 2.98-2.8 1.9-4.4 1.8-6.35L1.8-6.35 4.45-6.35ZM40.45 0L40.45-17.15Q40.45-20.2 38.67-21.58 36.9-22.95 34.1-22.95L34.1-22.95Q32.4-22.95 30.65-22.48 28.9-22 27.55-21.25L27.55-21.25 27.55 0 24.75 0 24.75-35 27.55-35 27.55-23.7Q28.8-24.55 30.55-25.03 32.3-25.5 34.2-25.5L34.2-25.5Q36.8-25.5 38.95-24.55L38.95-24.55Q40.95-23.65 42.07-21.85 43.2-20.05 43.2-17.3L43.2-17.3 43.2 0 40.45 0ZM51.8-32.15Q51.15-32.15 50.62-32.68 50.1-33.2 50.1-33.85L50.1-33.85Q50.1-34.5 50.6-35 51.1-35.5 51.8-35.5L51.8-35.5Q52.5-35.5 52.97-35.02 53.45-34.55 53.45-33.85L53.45-33.85Q53.45-33.15 52.95-32.65 52.45-32.15 51.8-32.15L51.8-32.15ZM50.35 0L50.35-25.05 53.15-25.05 53.15 0 50.35 0ZM61.34 0L61.34-27.45Q61.34-31.6 63.44-33.55 65.54-35.5 68.64-35.5L68.64-35.5Q69.59-35.5 70.49-35.35L70.49-35.35 70.04-32.9Q69.14-33 68.74-33L68.74-33Q64.14-33 64.14-27.45L64.14-27.45 64.14-25.05 69.84-25.05 68.64-22.4 64.14-22.4 64.14 0 61.34 0ZM79.64 0.65Q76.84-0.15 75.59-1.9 74.34-3.65 74.34-6.6L74.34-6.6 74.34-35 77.14-35 77.14-25.05 83.14-25.05 81.94-22.4 77.14-22.4 77.14-6.6Q77.14-2.6 80.44-1.5L80.44-1.5 79.64 0.65Z" fill="#ffffff" data-fill-palette-color="primary"></path></g></svg></g></svg></g><g transform="matrix(1,0,0,1,0,222.2239906909091)"><svg viewBox="0 0 232.20979199999996 24.981961313835278" height="24.981961313835278" width="232.20979199999996"><g transform="matrix(1,0,0,1,0,0)"><svg width="232.20979199999996" viewBox="4.69 -36.74 449.05 48.31" height="24.981961313835278" data-palette-color="#97b002"><path d="M24.56 0L4.69 0 4.69-33.84 24.05-33.84 24.05-30.44 8.69-30.44 8.69-19.53 21.63-19.53 21.63-16.06 8.69-16.06 8.69-3.39 24.56-3.39 24.56 0ZM35.28 0L31.32 0 31.32-24.98 34.62-24.98 34.98-21.31 35.08-21.31Q36.74-23.14 38.71-24.38 40.67-25.61 42.92-25.61L42.92-25.61Q45.77-25.61 47.4-24.32 49.02-23.02 49.75-20.8L49.75-20.8Q51.73-22.92 53.78-24.27 55.83-25.61 58.05-25.61L58.05-25.61Q61.89-25.61 63.77-23.13 65.65-20.65 65.65-15.87L65.65-15.87 65.65 0 61.72 0 61.72-15.36Q61.72-18.92 60.54-20.56 59.37-22.19 56.93-22.19L56.93-22.19Q54.05-22.19 50.49-18.19L50.49-18.19 50.49 0 46.51 0 46.51-15.36Q46.51-18.92 45.35-20.56 44.19-22.19 41.72-22.19L41.72-22.19Q38.84-22.19 35.28-18.19L35.28-18.19 35.28 0ZM84.74 0.61L84.74 0.61Q83 0.61 81.12-0.23 79.24-1.07 77.58-2.56L77.58-2.56 77.41-2.56 77.07 0 73.87 0 73.87-36.74 77.83-36.74 77.83-26.64 77.68-22.05Q79.46-23.56 81.5-24.58 83.54-25.61 85.66-25.61L85.66-25.61Q90.55-25.61 93.09-22.14 95.62-18.68 95.62-12.87L95.62-12.87Q95.62-8.62 94.11-5.6 92.6-2.59 90.12-0.99 87.64 0.61 84.74 0.61ZM84.13-2.71L84.13-2.71Q87.32-2.71 89.44-5.43 91.55-8.15 91.55-12.82L91.55-12.82Q91.55-17.04 89.96-19.68 88.37-22.31 84.74-22.31L84.74-22.31Q83.1-22.31 81.4-21.4 79.71-20.48 77.83-18.75L77.83-18.75 77.83-5.4Q79.54-3.93 81.2-3.32 82.86-2.71 84.13-2.71ZM106.27 0L102.31 0 102.31-24.98 105.61-24.98 105.97-20.46 106.07-20.46Q107.39-22.8 109.22-24.21 111.05-25.61 113.18-25.61L113.18-25.61Q114.79-25.61 115.81-25.1L115.81-25.1 114.93-21.73Q114.4-21.9 113.92-21.97 113.44-22.05 112.66-22.05L112.66-22.05Q111.08-22.05 109.32-20.74 107.56-19.43 106.27-16.16L106.27-16.16 106.27 0ZM125.75 0.61L125.75 0.61Q122.62 0.61 120.52-1.21 118.42-3.03 118.42-6.42L118.42-6.42Q118.42-10.52 122.15-12.72 125.87-14.92 133.9-15.82L133.9-15.82Q133.9-17.48 133.45-18.97 133-20.46 131.86-21.41 130.73-22.36 128.63-22.36L128.63-22.36Q126.41-22.36 124.47-21.51 122.52-20.65 121.06-19.73L121.06-19.73 119.52-22.36Q121.18-23.51 123.71-24.56 126.24-25.61 129.26-25.61L129.26-25.61Q133.83-25.61 135.84-22.8 137.86-20 137.86-15.41L137.86-15.41 137.86 0 134.56 0 134.24-3.03 134.1-3.03Q132.29-1.54 130.18-0.46 128.07 0.61 125.75 0.61ZM126.82-2.56L126.82-2.56Q128.7-2.56 130.35-3.44 132-4.32 133.9-5.96L133.9-5.96 133.9-13.18Q129.58-12.65 127.04-11.77 124.5-10.89 123.4-9.64 122.3-8.4 122.3-6.74L122.3-6.74Q122.3-4.52 123.62-3.54 124.94-2.56 126.82-2.56ZM155.63 0.61L155.63 0.61Q152.33 0.61 149.69-0.93 147.06-2.47 145.52-5.38 143.98-8.3 143.98-12.45L143.98-12.45Q143.98-16.63 145.64-19.57 147.3-22.51 150.02-24.06 152.75-25.61 155.92-25.61L155.92-25.61Q158.41-25.61 160.17-24.76 161.93-23.9 163.24-22.66L163.24-22.66 161.24-20.19Q160.19-21.17 158.91-21.74 157.63-22.31 156.09-22.31L156.09-22.31Q153.77-22.31 151.95-21.07 150.13-19.82 149.08-17.61 148.03-15.41 148.03-12.45L148.03-12.45Q148.03-8.06 150.23-5.36 152.43-2.66 155.99-2.66L155.99-2.66Q157.78-2.66 159.29-3.34 160.8-4.03 161.95-5.08L161.95-5.08 163.71-2.56Q160.27 0.61 155.63 0.61ZM179.31 0.61L179.31 0.61Q176.01 0.61 173.31-0.95 170.61-2.51 169.02-5.44 167.42-8.37 167.42-12.45L167.42-12.45Q167.42-16.53 169.02-19.48 170.61-22.44 173.18-24.02 175.74-25.61 178.6-25.61L178.6-25.61Q183.31-25.61 185.9-22.46 188.49-19.31 188.49-13.89L188.49-13.89Q188.49-12.52 188.34-11.57L188.34-11.57 171.32-11.57Q171.52-7.5 173.81-5 176.11-2.51 179.77-2.51L179.77-2.51Q181.65-2.51 183.21-3.02 184.78-3.52 186.12-4.42L186.12-4.42 187.51-1.95Q185.87-0.83 183.9-0.11 181.92 0.61 179.31 0.61ZM171.27-14.43L171.27-14.43 184.99-14.43Q184.99-18.36 183.33-20.41 181.67-22.46 178.65-22.46L178.65-22.46Q175.94-22.46 173.8-20.36 171.66-18.26 171.27-14.43ZM218.53 0.61L218.53 0.61Q214.6 0.61 213.07-1.66 211.53-3.93 211.53-7.62L211.53-7.62 211.53-21.73 207.82-21.73 207.82-24.78 211.75-24.98 212.21-33.08 215.51-33.08 215.51-24.98 222.37-24.98 222.37-21.73 215.51-21.73 215.51-7.52Q215.51-5.2 216.36-3.91 217.22-2.61 219.41-2.61L219.41-2.61Q220.07-2.61 220.81-2.75 221.54-2.88 222.29-3.22L222.29-3.22 223.17-0.44Q222.17 0 220.98 0.31 219.78 0.61 218.53 0.61ZM231.98 0L228.03 0 228.03-36.74 231.98-36.74 231.98-26.64 231.84-21.44Q233.64-23.17 235.65-24.39 237.65-25.61 240.24-25.61L240.24-25.61Q244.14-25.61 245.97-23.13 247.8-20.65 247.8-15.87L247.8-15.87 247.8 0 243.9 0 243.9-15.36Q243.9-18.92 242.75-20.56 241.6-22.19 238.99-22.19L238.99-22.19Q237.06-22.19 235.5-21.17 233.94-20.14 231.98-18.19L231.98-18.19 231.98 0ZM265.99 0.61L265.99 0.61Q262.69 0.61 260-0.95 257.3-2.51 255.7-5.44 254.1-8.37 254.1-12.45L254.1-12.45Q254.1-16.53 255.7-19.48 257.3-22.44 259.86-24.02 262.43-25.61 265.28-25.61L265.28-25.61Q269.99-25.61 272.58-22.46 275.17-19.31 275.17-13.89L275.17-13.89Q275.17-12.52 275.02-11.57L275.02-11.57 258.01-11.57Q258.2-7.5 260.5-5 262.79-2.51 266.45-2.51L266.45-2.51Q268.33-2.51 269.9-3.02 271.46-3.52 272.8-4.42L272.8-4.42 274.19-1.95Q272.56-0.83 270.58-0.11 268.6 0.61 265.99 0.61ZM257.96-14.43L257.96-14.43 271.68-14.43Q271.68-18.36 270.02-20.41 268.36-22.46 265.33-22.46L265.33-22.46Q262.62-22.46 260.49-20.36 258.35-18.26 257.96-14.43ZM310.59 0.61L310.59 0.61Q306.37 0.61 303.05-1.48 299.73-3.56 297.81-7.48 295.89-11.4 295.89-16.89L295.89-16.89Q295.89-22.34 297.83-26.27 299.77-30.2 303.16-32.34 306.54-34.47 310.83-34.47L310.83-34.47Q313.89-34.47 316.24-33.22 318.6-31.96 320.06-30.3L320.06-30.3 317.87-27.76Q316.55-29.2 314.81-30.05 313.08-30.91 310.91-30.91L310.91-30.91Q307.64-30.91 305.19-29.21 302.75-27.51 301.41-24.4 300.07-21.29 300.07-16.99L300.07-16.99Q300.07-12.67 301.37-9.51 302.68-6.35 305.07-4.64 307.47-2.93 310.74-2.93L310.74-2.93Q313.18-2.93 315.11-3.88 317.04-4.83 318.67-6.69L318.67-6.69 320.89-4.27Q318.89-1.9 316.36-0.65 313.84 0.61 310.59 0.61ZM330.83 0L326.87 0 326.87-36.74 330.83-36.74 330.83-26.64 330.68-21.44Q332.49-23.17 334.49-24.39 336.49-25.61 339.08-25.61L339.08-25.61Q342.99-25.61 344.82-23.13 346.65-20.65 346.65-15.87L346.65-15.87 346.65 0 342.74 0 342.74-15.36Q342.74-18.92 341.59-20.56 340.45-22.19 337.83-22.19L337.83-22.19Q335.91-22.19 334.34-21.17 332.78-20.14 330.83-18.19L330.83-18.19 330.83 0ZM360.56 0.61L360.56 0.61Q357.44 0.61 355.34-1.21 353.24-3.03 353.24-6.42L353.24-6.42Q353.24-10.52 356.96-12.72 360.68-14.92 368.72-15.82L368.72-15.82Q368.72-17.48 368.26-18.97 367.81-20.46 366.68-21.41 365.54-22.36 363.44-22.36L363.44-22.36Q361.22-22.36 359.28-21.51 357.34-20.65 355.87-19.73L355.87-19.73 354.34-22.36Q356-23.51 358.52-24.56 361.05-25.61 364.08-25.61L364.08-25.61Q368.64-25.61 370.66-22.8 372.67-20 372.67-15.41L372.67-15.41 372.67 0 369.37 0 369.06-3.03 368.91-3.03Q367.1-1.54 364.99-0.46 362.88 0.61 360.56 0.61ZM361.63-2.56L361.63-2.56Q363.51-2.56 365.16-3.44 366.81-4.32 368.72-5.96L368.72-5.96 368.72-13.18Q364.39-12.65 361.85-11.77 359.32-10.89 358.22-9.64 357.12-8.4 357.12-6.74L357.12-6.74Q357.12-4.52 358.44-3.54 359.76-2.56 361.63-2.56ZM384.61 0L380.65 0 380.65-24.98 383.95-24.98 384.31-21.39 384.41-21.39Q386.22-23.17 388.24-24.39 390.27-25.61 392.86-25.61L392.86-25.61Q396.76-25.61 398.6-23.13 400.43-20.65 400.43-15.87L400.43-15.87 400.43 0 396.52 0 396.52-15.36Q396.52-18.92 395.37-20.56 394.23-22.19 391.61-22.19L391.61-22.19Q389.68-22.19 388.12-21.17 386.56-20.14 384.61-18.19L384.61-18.19 384.61 0ZM417.12 11.57L417.12 11.57Q412.48 11.57 409.63 9.83 406.77 8.08 406.77 4.83L406.77 4.83Q406.77 3.2 407.75 1.73 408.72 0.27 410.41-0.85L410.41-0.85 410.41-1.07Q409.51-1.64 408.86-2.65 408.21-3.66 408.21-5.15L408.21-5.15Q408.21-6.74 409.12-7.93 410.02-9.13 410.95-9.79L410.95-9.79 410.95-9.99Q409.7-10.96 408.72-12.71 407.75-14.45 407.75-16.67L407.75-16.67Q407.75-19.41 409.02-21.41 410.29-23.41 412.4-24.51 414.51-25.61 417.03-25.61L417.03-25.61Q418.08-25.61 418.97-25.43 419.86-25.24 420.52-24.98L420.52-24.98 429.23-24.98 429.23-21.95 423.98-21.95Q424.91-21.04 425.52-19.65 426.13-18.26 426.13-16.63L426.13-16.63Q426.13-13.96 424.92-12.01 423.71-10.06 421.65-9 419.59-7.93 417.03-7.93L417.03-7.93Q416.1-7.93 415.11-8.15 414.12-8.37 413.27-8.79L413.27-8.79Q412.58-8.23 412.09-7.52 411.61-6.81 411.61-5.76L411.61-5.76Q411.61-4.52 412.55-3.75 413.49-2.98 416.05-2.98L416.05-2.98 420.98-2.98Q425.33-2.98 427.49-1.54 429.65-0.1 429.65 2.98L429.65 2.98Q429.65 5.27 428.11 7.23 426.57 9.18 423.75 10.38 420.93 11.57 417.12 11.57ZM417.03-10.6L417.03-10.6Q419.27-10.6 420.91-12.24 422.54-13.89 422.54-16.67L422.54-16.67Q422.54-19.51 420.92-21.11 419.3-22.71 417.03-22.71L417.03-22.71Q414.73-22.71 413.14-21.11 411.56-19.51 411.56-16.67L411.56-16.67Q411.56-13.89 413.18-12.24 414.8-10.6 417.03-10.6ZM417.64 8.79L417.64 8.79Q420.1 8.79 421.91 8.03 423.71 7.28 424.72 6.08 425.72 4.88 425.72 3.54L425.72 3.54Q425.72 1.73 424.44 1.04 423.15 0.34 420.61 0.34L420.61 0.34 416.15 0.34Q415.46 0.34 414.61 0.26 413.75 0.17 412.9-0.05L412.9-0.05Q411.51 0.9 410.89 2.05 410.26 3.2 410.26 4.32L410.26 4.32Q410.26 6.37 412.22 7.58 414.17 8.79 417.64 8.79ZM444.56 0.61L444.56 0.61Q441.27 0.61 438.57-0.95 435.87-2.51 434.27-5.44 432.67-8.37 432.67-12.45L432.67-12.45Q432.67-16.53 434.27-19.48 435.87-22.44 438.43-24.02 441-25.61 443.85-25.61L443.85-25.61Q448.57-25.61 451.15-22.46 453.74-19.31 453.74-13.89L453.74-13.89Q453.74-12.52 453.6-11.57L453.6-11.57 436.58-11.57Q436.77-7.5 439.07-5 441.36-2.51 445.03-2.51L445.03-2.51Q446.91-2.51 448.47-3.02 450.03-3.52 451.37-4.42L451.37-4.42 452.77-1.95Q451.13-0.83 449.15-0.11 447.17 0.61 444.56 0.61ZM436.53-14.43L436.53-14.43 450.25-14.43Q450.25-18.36 448.59-20.41 446.93-22.46 443.9-22.46L443.9-22.46Q441.19-22.46 439.06-20.36 436.92-18.26 436.53-14.43Z" opacity="1" transform="matrix(1,0,0,1,0,0)" fill="#ffffff" class="slogan-text-1" data-fill-palette-color="secondary" id="text-1"></path></svg></g></svg></g></svg></g></svg></g><g transform="matrix(1,0,0,1,0,13.37403617054153)"><svg viewBox="0 0 244.43136 220.45787966366132" height="220.45787966366132" width="244.43136"><g><svg xmlns="http://www.w3.org/2000/svg" xmlns:xlink="http://www.w3.org/1999/xlink" version="1.1" x="0" y="0" viewBox="5.070561430809172 8.908 90.24843856919082 81.397" enable-background="new 0 0 100 100" xml:space="preserve" height="220.45787966366132" width="244.43136" class="icon-icon-0" data-fill-palette-color="accent" id="icon-0"><path d="M54.621 8.908A3.577 3.577 0 0 0 54.621 16.064C73.114 16.064 88.161 31.111 88.161 49.607S73.114 83.149 54.621 83.149C37.65 83.149 23.591 70.473 21.391 54.093L23.895 56.598A3.56 3.56 0 0 0 26.425 57.645 3.58 3.58 0 0 0 28.955 51.537L20.033 42.615A3.58 3.58 0 0 0 14.973 42.615L6.051 51.537A3.58 3.58 0 0 0 11.112 56.598L14.124 53.586C16.131 74.165 33.527 90.305 54.622 90.305 77.061 90.305 95.319 72.047 95.319 49.607 95.318 27.166 77.061 8.908 54.621 8.908" fill="#ffffff" data-fill-palette-color="accent"></path><path d="M41.141 69.414A3.793 3.793 0 0 1 38.458 62.94L50.314 51.08V27.108A3.79 3.79 0 1 1 57.895 27.108V52.649C57.895 53.655 57.497 54.619 56.786 55.331L43.823 68.303A3.78 3.78 0 0 1 41.141 69.414" fill="#ffffff" data-fill-palette-color="accent"></path><path d="M81.644 51.94H77.718A2.5 2.5 0 1 1 77.718 46.94H81.644A2.5 2.5 0 1 1 81.644 51.94" fill="#ffffff" data-fill-palette-color="accent"></path><path d="M72.316 71.539C71.676 71.539 71.037 71.295 70.548 70.807L67.772 68.031A2.499 2.499 0 1 1 71.307 64.496L74.083 67.272A2.498 2.498 0 0 1 72.316 71.539" fill="#ffffff" data-fill-palette-color="accent"></path><path d="M52.719 79.657A2.5 2.5 0 0 1 50.219 77.157V73.23A2.5 2.5 0 1 1 55.219 73.23V77.157A2.5 2.5 0 0 1 52.719 79.657" fill="#ffffff" data-fill-palette-color="accent"></path><path d="M69.541 35.117A2.5 2.5 0 0 1 67.773 30.849L70.548 28.073A2.499 2.499 0 1 1 74.083 31.609L71.308 34.385A2.5 2.5 0 0 1 69.541 35.117" fill="#ffffff" data-fill-palette-color="accent"></path></svg></g></svg></g></svg></g><defs></defs></svg><rect width="395.5199999999999" height="143.2822755183629" fill="none" stroke="none" visibility="hidden"></rect></g></svg></g></svg>